<?xml version="1.0" standalone="no"?>
<!DOCTYPE svg PUBLIC "-//W3C//DTD SVG 20010904//EN"
 "http://www.w3.org/TR/2001/REC-SVG-20010904/DTD/svg10.dtd">
<svg version="1.0" xmlns="http://www.w3.org/2000/svg"
 width="1191.000000pt" height="1191.000000pt" viewBox="0 0 1191.000000 1191.000000"
 preserveAspectRatio="xMidYMid meet">
<metadata>
Created by potrace 1.11, written by Peter Selinger 2001-2013
</metadata>
<g transform="translate(0.000000,1191.000000) scale(0.100000,-0.100000)"
fill="#000000" stroke="none">
<path d="M4578 10210 c-106 -19 -263 -75 -345 -122 -242 -140 -453 -381 -582
-663 -10 -22 -30 -65 -44 -95 -68 -148 -150 -388 -220 -646 -68 -249 -229
-445 -380 -460 -148 -14 -380 -22 -882 -29 -337 -5 -376 -7 -520 -31 -281 -46
-432 -166 -526 -418 -33 -88 -13 -283 39 -382 5 -10 24 -48 42 -83 58 -118
177 -281 328 -451 69 -76 379 -388 678 -681 311 -304 422 -435 465 -548 28
-71 29 -203 4 -351 -9 -58 -19 -121 -21 -140 -3 -19 -9 -55 -14 -80 -5 -25
-12 -63 -15 -85 -3 -22 -7 -47 -10 -55 -2 -8 -6 -33 -10 -55 -3 -22 -11 -58
-16 -80 -6 -22 -12 -44 -14 -50 -22 -96 -85 -303 -186 -605 -155 -467 -206
-646 -249 -884 -61 -344 -42 -663 52 -850 54 -107 90 -152 205 -257 81 -73
287 -174 433 -210 134 -34 261 -56 390 -67 104 -8 496 -8 605 1 153 13 210 19
216 23 3 1 28 6 55 9 71 9 72 9 264 50 313 66 372 75 600 91 115 8 370 7 460
-2 36 -3 81 -7 100 -9 19 -2 121 -17 225 -34 215 -36 225 -38 280 -46 23 -3
50 -7 61 -9 95 -19 423 -25 599 -12 261 19 346 39 885 216 69 23 130 42 135
44 6 1 26 7 45 13 144 46 295 81 387 90 139 14 212 8 378 -27 127 -27 243 -47
320 -55 33 -4 71 -9 85 -11 104 -17 453 -23 552 -11 57 8 161 37 208 60 66 31
180 124 180 146 0 6 4 11 8 11 13 0 70 119 86 182 24 95 29 155 30 353 0 178
-6 286 -19 345 -3 14 -8 41 -11 60 -14 84 -94 382 -190 707 -99 338 -124 426
-130 448 -2 8 -41 150 -89 325 -38 138 -125 537 -140 650 -4 24 -8 47 -10 50
-2 3 -6 41 -10 85 -4 44 -9 89 -11 100 -3 11 -5 81 -5 155 -1 373 62 484 585
1031 141 146 209 221 266 289 25 29 53 62 63 72 35 37 167 219 220 305 71 116
140 261 164 348 24 87 26 98 25 200 0 78 -4 112 -21 156 -55 144 -206 313
-332 372 -213 99 -456 97 -880 -8 -57 -14 -111 -28 -119 -30 -158 -38 -329
-62 -414 -59 -56 3 -78 9 -134 40 -108 60 -223 185 -299 324 -55 99 -100 184
-150 280 -171 324 -247 449 -376 608 -153 189 -318 305 -549 384 -88 31 -100
32 -243 32 -138 1 -161 -2 -278 -32 -70 -18 -226 -67 -345 -109 -361 -126
-417 -141 -508 -137 -44 2 -88 5 -99 8 -44 10 -205 66 -300 104 -218 87 -479
169 -625 197 -55 11 -350 15 -402 5z"/>
</g>
</svg>
